<?xml version="1.0" encoding="utf-8"?>
<!-- Generator: Adobe Illustrator 19.2.1, SVG Export Plug-In . SVG Version: 6.00 Build 0)  -->
<svg version="1.1" id="Layer_2" xmlns="http://www.w3.org/2000/svg" xmlns:xlink="http://www.w3.org/1999/xlink" x="0px" y="0px"
	 viewBox="0 0 80.3 80.3" style="enable-background:new 0 0 80.3 80.3;" xml:space="preserve">
<style type="text/css">
	.st0{fill:#EB6A5C;}
	.st1{fill:#552F2F;}
	.st2{fill:#55AB99;}
	.st3{fill:#2F4555;}
	.st4{fill:#FFFFFF;}
	.st5{fill:#ED6B5A;}
	.st6{fill:#0C2C48;}
	.st7{fill:#F1CC4B;}
	.st8{clip-path:url(#SVGID_2_);}
	.st9{clip-path:url(#SVGID_2_);fill:#F6A09C;}
	.st10{fill:#50646F;}
	.st11{fill:#FCA886;}
	.st12{fill:#EDAB7E;}
	.st13{fill:#332319;}
	.st14{fill:#E07E45;}
	.st15{fill:#FF8F8F;}
	.st16{fill:#A6D1D9;}
	.st17{fill:#628185;}
	.st18{fill:#BABABA;}
	.st19{fill:#698391;}
	.st20{opacity:0.41;fill:#FFFFFF;}
	.st21{fill:#F6A09C;}
	.st22{fill:#FFF3C9;}
	.st23{fill:#2384AB;}
	.st24{fill:#BABFC5;}
	.st25{clip-path:url(#SVGID_4_);}
	.st26{fill:#6EB9E0;}
	.st27{fill:#F8A06D;}
	.st28{fill:#A3B9C4;}
	.st29{fill:#3B4A52;}
	.st30{clip-path:url(#SVGID_6_);}
	.st31{clip-path:url(#SVGID_8_);fill:#F6A09C;}
	.st32{opacity:0.21;fill:#FFFFFF;}
	.st33{clip-path:url(#SVGID_10_);fill:#F6A09C;}
	.st34{clip-path:url(#SVGID_12_);}
	.st35{fill:#FFD3B5;}
	.st36{fill:#BFD9E6;}
	.st37{fill:#798287;}
	.st38{fill:#A4A8AD;}
	.st39{fill:#FFD6BA;}
	.st40{fill:none;stroke:#0C2C48;stroke-width:1.4;stroke-miterlimit:10;}
</style>
<g>
	<g>
		<circle class="st10" cx="40.2" cy="40.2" r="40.2"/>
	</g>
	<g>
		<line class="st40" x1="40.2" y1="20" x2="40.2" y2="64.3"/>
		<g>
			<rect x="14.5" y="14.5" class="st4" width="51.3" height="11.2"/>
			<g>
				<g>
					<rect x="16.2" y="16.1" class="st26" width="3.5" height="3.5"/>
					<rect x="20.8" y="16.1" class="st26" width="3.5" height="3.5"/>
					<rect x="25.4" y="16.1" class="st26" width="3.5" height="3.5"/>
				</g>
				<g>
					<rect x="16.2" y="21" class="st6" width="3.5" height="3.5"/>
					<rect x="20.8" y="21" class="st6" width="3.5" height="3.5"/>
					<rect x="25.4" y="21" class="st6" width="3.5" height="3.5"/>
				</g>
				<g>
					<rect x="54.4" y="16.1" class="st6" width="2" height="8.5"/>
					<rect x="58.3" y="16.1" class="st6" width="2" height="8.5"/>
					<rect x="62.2" y="16.1" class="st6" width="2" height="8.5"/>
				</g>
				<circle class="st26" cx="40.5" cy="20" r="3.1"/>
			</g>
		</g>
		<g>
			<rect x="14.5" y="30.7" class="st4" width="51.3" height="11.2"/>
			<g>
				<g>
					<rect x="16.2" y="32.2" class="st27" width="3.5" height="3.5"/>
					<rect x="20.8" y="32.2" class="st27" width="3.5" height="3.5"/>
					<rect x="25.4" y="32.2" class="st27" width="3.5" height="3.5"/>
				</g>
				<g>
					<rect x="16.2" y="37.1" class="st5" width="3.5" height="3.5"/>
					<rect x="20.8" y="37.1" class="st5" width="3.5" height="3.5"/>
					<rect x="25.4" y="37.1" class="st5" width="3.5" height="3.5"/>
				</g>
				<g>
					<rect x="54.4" y="32.2" class="st23" width="2" height="8.5"/>
					<rect x="58.3" y="32.2" class="st23" width="2" height="8.5"/>
					<rect x="62.2" y="32.2" class="st23" width="2" height="8.5"/>
				</g>
				<circle class="st10" cx="40.5" cy="36.1" r="3.1"/>
			</g>
		</g>
		<g>
			<rect x="14.5" y="46.8" class="st4" width="51.3" height="11.2"/>
			<g>
				<g>
					<rect x="16.2" y="48.3" class="st5" width="3.5" height="3.5"/>
					<rect x="20.8" y="48.3" class="st5" width="3.5" height="3.5"/>
					<rect x="25.4" y="48.3" class="st5" width="3.5" height="3.5"/>
				</g>
				<g>
					<rect x="16.2" y="53.2" class="st6" width="3.5" height="3.5"/>
					<rect x="20.8" y="53.2" class="st6" width="3.5" height="3.5"/>
					<rect x="25.4" y="53.2" class="st6" width="3.5" height="3.5"/>
				</g>
				<g>
					<rect x="54.4" y="48.3" class="st27" width="2" height="8.5"/>
					<rect x="58.3" y="48.3" class="st27" width="2" height="8.5"/>
					<rect x="62.2" y="48.3" class="st27" width="2" height="8.5"/>
				</g>
				<circle class="st21" cx="40.5" cy="52.2" r="3.1"/>
			</g>
		</g>
		<line class="st40" x1="62.4" y1="64.6" x2="18" y2="64.6"/>
		<circle class="st27" cx="40.2" cy="64.8" r="3.1"/>
	</g>
</g>
</svg>
