<svg version="1.1" preserveAspectRatio="xMidYMid meet" xmlns="http://www.w3.org/2000/svg" xmlns:xlink="http://www.w3.org/1999/xlink" viewBox="-272.947 0 1545.894 1000"><defs><g transform="matrix(3.167, 0, 0, 3.167, 339.078, 236.904)" fill="#fff" stroke="none" stroke-width="1" id="def-0c47dd9c-4576-4c40-bee5-f4d564bd51ba"><g transform="translate(0.809, 0.961)"><g></g><g><path d=" m81.383 71.539 c0.77 0.617 1.23 1.539 1.23 2.309 h2.309 c0 -1.539 -0.77 -3.078 -2 -4.152 -0.922 -0.77 -2.152 -1.23 -3.383 -1.539 v-3.539 h-2.309 v3.848 c-1.23 0.152 -2.461 0.617 -3.383 1.539 -1.23 1.078 -2 2.617 -2 4.152 0 1.539 0.77 3.078 2 4.152 1.23 1.078 2.769 1.691 4.461 1.691 1.078 0 2.152 0.309 2.922 1.078 0.77 0.617 1.23 1.539 1.23 2.309 s-0.461 1.691 -1.23 2.309 c-1.539 1.383 -4.461 1.383 -6 0 -0.77 -0.617 -1.23 -1.539 -1.23 -2.309 h-2.309 c0 1.539 0.77 3.078 2 4.152 0.922 0.77 2.152 1.383 3.383 1.539 v3.691 h2.309 v-3.691 c1.23 -0.152 2.461 -0.77 3.383 -1.539 1.23 -1.078 2 -2.617 2 -4.152 0 -1.539 -0.77 -3.078 -2 -4.152 -1.23 -1.078 -2.769 -1.691 -4.461 -1.691 -1.078 0 -2.152 -0.309 -2.922 -1.078 -0.77 -0.617 -1.23 -1.539 -1.23 -2.309 0 -0.922 0.461 -1.691 1.23 -2.309 1.695 -1.539 4.465 -1.695 6 -0.309 z"></path><path d=" m82.309 10.617 h-52.309 v19.539 h52.309 z m-2.309 17.23 h-47.691 v-14.926 h47.691 z"></path><path d=" m33.539 69.848 h14.77 v2.309 h-14.77 z"></path><path d=" m42.152 38.77 h-2.305 v6.152 h-6.309 v2.309 h6.309 v6.152 h2.305 v-6.152 h6.156 v-2.309 h-6.156 z"></path><path d=" m75.848 40 l-4.309 4.461 -4.461 -4.461 -1.539 1.691 4.309 4.309 -4.309 4.461 1.539 1.691 4.461 -4.461 4.309 4.461 1.691 -1.691 -4.461 -4.461 4.461 -4.309 z"></path><path d=" m92.152 61.539 v-62 h-71.844 v89.848 h39.23 c0.922 1.539 2 3.078 3.383 4.461 4.152 4.152 9.539 6.461 15.383 6.461 h0.156 c12 0 21.848 -9.691 21.848 -21.691 0 -6.926 -3.231 -13.078 -8.156 -17.078 z m-69.535 25.691 v-85.383 h67.23 v58.152 c-3.383 -2 -7.231 -3.231 -11.383 -3.231 -12 0 -21.848 9.691 -21.848 21.691 0 3.078 0.617 6 1.848 8.77 z m55.844 10.922 v1.23 -1.23 c-5.231 0 -10.152 -2 -13.848 -5.848 -3.691 -3.691 -5.691 -8.617 -5.691 -13.848 0 -10.77 8.77 -19.383 19.539 -19.383 10.77 0 19.539 8.77 19.383 19.539 0.004 10.77 -8.766 19.539 -19.383 19.539 z"></path><path d=" m-0.309 89.539 h14.77 v-71.539 h-14.77 z m2.309 -69.23 h10.309 v7.383 h-4.926 v2.309 h4.926 v10.152 h-3.078 v2.309 h3.078 v10.152 l-4.926 0.004 v2.309 l4.926 -0.004 v10.152 l-3.078 0.004 v2.309 h3.078 v10.152 h-4.926 v2.309 h4.926 v7.383 h-10.309 z"></path></g></g></g><path d="M106.013,664.064 L107.117,664.064 L124.025,696.181 L139.574,664.064 L140.678,664.064 L117.228,712.154 L116.293,712.154 L123.515,697.2 Z M106.098,717.847 L122.496,717.847 L150.704,660.666 L150.704,658.372 L134.221,658.372 L124.025,680.292 L123.6,680.292 L112.385,658.372 L95.392,658.372 L95.392,660.666 L115.444,697.03 L106.098,716.232 Z M209.718,717.847 L209.718,658.372 L194.255,658.372 L194.255,682.671 L191.281,682.671 C179.471,682.671,178.706,675.789,178.706,665.679 L178.706,658.372 L163.073,658.372 L163.073,665.679 C163.073,686.58,170.55,697.115,191.196,697.115 L194.255,697.115 L194.255,717.847 Z M170.38,664.149 L171.399,664.149 L171.399,665.764 C171.399,680.123,175.648,689.554,191.196,689.554 L201.477,689.554 L201.477,664.149 L202.581,664.149 L202.581,711.984 L201.477,711.984 L201.477,690.403 L191.111,690.403 C175.818,690.403,170.38,681.822,170.38,665.764 Z M238.655,664.659 L262.87,664.659 L262.87,665.509 L239.59,665.509 L239.59,686.665 L261.171,686.665 L261.171,687.514 L239.59,687.514 C239.59,695.246,239.59,702.978,239.59,710.71 L263.635,710.71 L263.635,711.559 L238.655,711.559 C238.655,695.841,238.655,680.208,238.655,664.659 Z M268.648,658.372 C254.714,658.372,245.283,658.372,231.518,658.372 C231.518,678.083,231.518,697.965,231.518,717.847 C245.283,717.847,255.478,717.847,269.412,717.847 C269.412,713.344,269.412,708.756,269.412,704.337 C260.491,704.337,255.393,704.337,246.642,704.337 C246.642,700.769,246.642,697.37,246.642,693.887 L266.864,693.887 C266.864,689.384,266.864,684.881,266.864,680.377 L246.642,680.377 L246.642,671.966 C255.393,671.966,259.811,671.966,268.648,671.966 C268.648,667.378,268.648,662.79,268.648,658.372 Z M239.76,654.548 C244.263,654.548,248.001,651.575,248.001,647.071 C248.001,642.398,244.263,639.425,239.76,639.425 C235.172,639.425,231.518,642.398,231.518,647.071 C231.518,651.575,235.172,654.548,239.76,654.548 Z M261.681,654.548 C266.269,654.548,269.837,651.575,269.837,647.071 C269.837,642.398,266.269,639.425,261.681,639.425 C257.093,639.425,253.439,642.398,253.439,647.071 C253.439,651.575,257.093,654.548,261.681,654.548 Z M261.681,650.3 C259.642,650.3,257.942,649.111,257.942,647.071 C257.942,644.862,259.642,643.673,261.681,643.673 C263.72,643.673,265.504,644.862,265.504,647.071 C265.504,649.111,263.72,650.3,261.681,650.3 Z M261.681,651.065 C259.302,651.065,257.093,649.62,257.093,647.071 C257.093,644.523,259.132,642.908,261.681,642.908 C264.145,642.908,266.099,644.523,266.099,647.071 C266.099,649.62,264.145,651.065,261.681,651.065 Z M239.76,650.3 C237.721,650.3,236.021,649.111,236.021,647.071 C236.021,644.862,237.721,643.673,239.76,643.673 C241.884,643.673,243.583,644.862,243.583,647.071 C243.583,649.111,241.884,650.3,239.76,650.3 Z M239.76,651.065 C237.296,651.065,235.257,649.62,235.257,647.071 C235.257,644.523,237.296,642.908,239.76,642.908 C242.309,642.908,244.263,644.523,244.263,647.071 C244.263,649.62,242.309,651.065,239.76,651.065 Z M297.925,671.966 L297.925,717.847 C302.938,717.847,307.95,717.847,312.963,717.847 L312.963,671.966 L327.492,671.966 C327.492,667.378,327.492,662.875,327.492,658.372 L283.311,658.372 C283.311,662.875,283.311,667.378,283.311,671.966 Z M305.062,712.154 L305.062,665.509 L289.003,665.509 L289.003,664.744 L321.715,664.744 L321.715,665.509 L305.826,665.509 L305.826,712.154 Z M399.895,696.266 L381.628,696.266 L381.628,712.154 L380.693,712.154 L380.693,664.829 L399.895,664.829 C418.842,664.829,418.757,696.096,399.895,696.266 Z M388.85,717.847 L388.85,702.638 L399.81,702.638 C428.273,702.638,428.273,658.457,399.81,658.372 C391.059,658.372,382.223,658.372,373.641,658.372 C373.641,678.253,373.641,698.05,373.641,717.847 C378.654,717.847,383.752,717.847,388.85,717.847 Z M381.628,665.594 L381.628,695.246 L399.895,695.246 C417.738,695.246,417.483,665.594,399.895,665.594 Z M399.725,688.959 L388.85,688.959 C388.85,684.116,388.85,676.809,388.85,671.966 C392.333,671.966,396.157,671.881,399.725,671.966 C408.562,672.051,408.052,688.959,399.725,688.959 Z M458.23,668.143 L458.315,668.143 L474.458,702.723 L442.257,702.723 Z M473.523,717.847 L488.392,717.847 L488.392,715.638 L461.543,657.607 L455.001,657.607 L428.237,715.638 L428.237,717.847 L443.106,717.847 L446.59,710.37 L470.04,710.37 Z M479.811,712.069 L478.706,712.069 L474.798,703.658 L441.917,703.658 L437.923,712.069 L436.819,712.069 L457.975,666.273 L458.485,666.273 Z M458.23,683.011 L452.112,696.691 L464.517,696.691 Z M499.317,688.109 C499.402,708.331,514.695,718.526,529.819,718.441 C542.479,718.441,555.818,711.814,558.027,694.991 C552.844,694.991,548.171,694.991,543.073,694.991 C541.459,701.364,536.276,704.592,529.819,704.592 C520.813,704.507,515.035,696.861,515.035,688.109 C515.035,678.253,520.898,671.541,529.819,671.541 C536.191,671.541,540.694,674.26,542.819,680.292 C548.001,680.292,552.589,680.292,557.772,680.292 C555.478,664.404,542.139,657.692,529.819,657.692 C514.695,657.692,499.402,667.888,499.317,688.109 Z M549.021,700.344 C545.452,707.821,537.976,711.899,529.819,711.899 C518.349,711.984,506.794,703.488,506.794,688.109 C506.794,672.646,518.349,664.234,529.819,664.234 C537.806,664.234,544.773,667.803,548.681,674.855 L547.662,674.855 C543.923,668.228,537.466,664.999,529.819,664.999 C518.859,664.999,507.643,673.24,507.643,688.109 C507.643,702.893,518.859,711.05,529.819,711.05 C537.721,711.05,544.263,707.566,548.001,700.344 Z M597.33,685.305 L611.264,664.064 L612.199,664.064 L597.755,686.325 L614.408,712.154 L613.388,712.154 L597.33,687.345 L581.357,712.154 L580.167,712.154 L596.905,686.325 L582.376,664.064 L583.311,664.064 Z M597.585,699.155 L608.46,717.847 L624.858,717.847 L624.858,715.553 L605.571,686.325 L622.734,660.666 L622.734,658.372 L607.016,658.372 L597.5,673.835 L597.075,673.835 L587.644,658.372 L571.841,658.372 L571.841,660.666 L589.003,686.325 L569.801,715.553 L569.801,717.847 L586.199,717.847 L597.075,699.155 Z M644.024,688.194 C644.024,656.333,690.16,656.248,690.16,688.194 C690.16,720.141,644.024,720.141,644.024,688.194 Z M697.552,688.194 C697.552,647.071,636.548,647.071,636.548,688.194 C636.548,729.402,697.552,729.402,697.552,688.194 Z M652.181,688.194 C652.181,709.775,682.003,709.775,682.003,688.194 C682.003,666.783,652.181,666.783,652.181,688.194 Z M689.31,688.194 C689.31,718.696,644.874,719.291,644.874,688.194 C644.874,657.182,689.31,657.777,689.31,688.194 Z M715.104,711.899 L715.104,718.781 L714.169,718.781 L714.169,710.965 L718.927,710.965 L737.704,666.273 L738.214,666.273 L757.671,710.965 L762.684,710.965 L762.684,718.781 L761.749,718.781 L761.749,711.899 Z M737.959,668.143 L720.032,710.965 L756.481,710.965 L738.044,668.143 Z M720.881,718.017 L756.057,718.017 L756.057,724.559 L768.546,724.559 L768.546,704.677 L762.344,704.677 L741.273,657.607 L734.73,657.607 L714.339,704.677 L708.307,704.677 L708.307,724.559 L720.881,724.559 Z M737.959,683.011 L746.541,704.507 L729.718,704.507 Z M786.693,688.194 C786.693,656.333,832.828,656.248,832.828,688.194 C832.828,720.141,786.693,720.141,786.693,688.194 Z M840.22,688.194 C840.22,647.071,779.216,647.071,779.216,688.194 C779.216,729.402,840.22,729.402,840.22,688.194 Z M794.849,688.194 C794.849,709.775,824.672,709.775,824.672,688.194 C824.672,666.783,794.849,666.783,794.849,688.194 Z M831.979,688.194 C831.979,718.696,787.542,719.291,787.542,688.194 C787.542,657.182,831.979,657.777,831.979,688.194 Z M883.686,665.509 C889.634,665.509,894.392,670.692,894.392,676.639 C894.392,682.671,889.804,687.684,883.686,687.684 L866.354,687.684 L866.354,665.509 Z M902.293,676.639 C902.293,666.358,894.052,658.372,883.771,658.372 L858.367,658.372 L858.367,717.847 L886.235,717.847 C898.385,717.847,904.672,709.435,904.757,699.07 C904.757,693.802,902.463,689.384,897.62,686.92 C900.509,684.541,902.293,680.208,902.293,676.639 Z M883.686,664.744 C890.059,664.744,895.241,670.182,895.241,676.639 C895.241,681.057,892.013,686.58,887.68,687.599 L887.68,687.939 C893.372,688.194,897.705,693.462,897.705,699.07 C897.705,705.442,892.523,711.559,886.065,711.559 L865.504,711.559 L865.504,664.744 Z M886.065,688.449 C891.928,688.449,896.856,693.037,896.856,699.07 C896.856,705.102,891.928,710.71,886.065,710.71 L866.354,710.71 L866.354,688.449 Z M885.131,694.566 L873.066,694.566 L873.066,704.337 L885.216,704.337 C891.333,704.337,891.248,694.566,885.131,694.566 Z M873.066,671.966 L873.066,681.397 L882.667,681.397 C888.699,681.397,888.699,671.966,882.582,671.966 Z" id="def-eda0d50b-0f27-498d-89e6-02ba7c5080e8"></path><path d="M419.888,743.726 L419.888,762.86 L422.403,762.86 L422.403,739.07 L418.699,739.07 L414.926,758.068 L411.018,739.07 L407.314,739.07 L407.314,762.86 L409.625,762.86 L409.625,743.896 L413.567,762.826 L416.116,762.826 Z M428.344,749.605 L428.344,741.483 L435.481,741.483 L435.481,739.07 L425.693,739.07 L425.693,762.86 L435.481,762.86 L435.481,760.447 L428.344,760.447 L428.344,751.984 L434.156,751.984 L434.156,749.605 Z M446.996,752.154 L446.996,762.86 L449.647,762.86 L449.647,739.07 L446.996,739.07 L446.996,749.775 L441.15,749.775 L441.15,739.07 L438.499,739.07 L438.499,762.86 L441.15,762.86 L441.15,752.154 Z M455.588,748.45 L455.588,739.07 L452.937,739.07 L452.937,762.86 L458.136,762.86 C461.841,762.86,463.472,760.651,463.472,757.048 L463.472,754.193 C463.472,750.421,461.705,748.45,457.933,748.45 Z M455.588,760.447 L455.588,750.829 L457.933,750.829 C459.904,750.829,460.855,751.712,460.855,754.023 L460.855,757.184 C460.855,759.359,460.074,760.447,458.136,760.447 Z M466.456,739.07 L466.456,762.86 L483.483,762.86 L483.483,739.07 L480.866,739.07 L480.866,760.447 L476.312,760.447 L476.312,739.07 L473.661,739.07 L473.661,760.447 L469.107,760.447 L469.107,739.07 Z M489.424,749.605 L489.424,741.483 L496.561,741.483 L496.561,739.07 L486.773,739.07 L486.773,762.86 L496.561,762.86 L496.561,760.447 L489.424,760.447 L489.424,751.984 L495.236,751.984 L495.236,749.605 Z M508.069,748.891 L508.069,741.483 L515.478,741.483 L515.478,739.07 L505.452,739.07 L505.452,762.86 L510.992,762.86 C514.73,762.86,516.464,760.786,516.464,757.082 L516.464,754.465 C516.464,750.659,514.561,748.891,510.856,748.891 Z M508.069,760.447 L508.069,751.27 L510.856,751.27 C512.793,751.27,513.813,751.984,513.813,754.295 L513.813,757.252 C513.813,759.461,512.929,760.447,510.992,760.447 Z M519.414,757.116 C519.414,760.718,521.215,763.097,524.852,763.097 C528.522,763.097,530.323,760.718,530.323,757.116 L530.323,744.813 C530.323,741.177,528.522,738.832,524.852,738.832 C521.215,738.832,519.414,741.177,519.414,744.813 Z M522.031,744.677 C522.031,742.536,522.948,741.245,524.852,741.245 C526.789,741.245,527.672,742.536,527.672,744.677 L527.672,757.252 C527.672,759.427,526.789,760.685,524.852,760.685 C522.948,760.685,522.031,759.427,522.031,757.252 Z M543.027,741.483 L543.027,762.86 L545.678,762.86 L545.678,739.07 L535.992,739.07 L535.347,757.082 C535.279,759.359,534.905,760.481,532.696,760.481 L532.696,762.894 L533.138,762.894 C536.774,762.86,537.794,760.718,537.93,756.946 L538.473,741.483 Z M551.721,748.45 L551.721,739.07 L549.07,739.07 L549.07,762.86 L554.27,762.86 C557.975,762.86,559.606,760.651,559.606,757.048 L559.606,754.193 C559.606,750.421,557.839,748.45,554.066,748.45 Z M551.721,760.447 L551.721,750.829 L554.066,750.829 C556.037,750.829,556.989,751.712,556.989,754.023 L556.989,757.184 C556.989,759.359,556.207,760.447,554.27,760.447 Z M562.59,739.07 L562.59,762.86 L579.617,762.86 L579.617,739.07 L577,739.07 L577,760.447 L572.446,760.447 L572.446,739.07 L569.795,739.07 L569.795,760.447 L565.241,760.447 L565.241,739.07 Z M585.558,749.605 L585.558,741.483 L592.695,741.483 L592.695,739.07 L582.907,739.07 L582.907,762.86 L592.695,762.86 L592.695,760.447 L585.558,760.447 L585.558,751.984 L591.369,751.984 L591.369,749.605 Z" id="def-18a77b39-f3d9-4240-8604-ab8da26be588"></path><linearGradient id="gradient-8ac9a2a1-ce3b-4da9-97a4-d27051a85c74" gradientUnits="objectBoundingBox" x1="0.854" y1="0.146" x2="0.146" y2="0.854"><stop offset="0" stop-color="#a0881d" stop-opacity="1"></stop><stop offset="0.125" stop-color="#978b1e" stop-opacity="1"></stop><stop offset="0.25" stop-color="#8e8e20" stop-opacity="1"></stop><stop offset="0.375" stop-color="#859124" stop-opacity="1"></stop><stop offset="0.5" stop-color="#7b9329" stop-opacity="1"></stop><stop offset="0.625" stop-color="#71952f" stop-opacity="1"></stop><stop offset="0.75" stop-color="#669736" stop-opacity="1"></stop><stop offset="0.875" stop-color="#5a993d" stop-opacity="1"></stop><stop offset="1" stop-color="#4d9a45" stop-opacity="1"></stop></linearGradient><mask id="mask-dd46d509-f92c-4fa8-b925-c4c9101d8738" x="322.985" y="220.812" width="354.029" height="354.995" maskUnits="userSpaceOnUse" stroke-width="0"><rect x="339.078" y="236.904" width="321.845" height="322.81" fill="#000"></rect><use xlink:href="#def-0c47dd9c-4576-4c40-bee5-f4d564bd51ba" fill="#fff" stroke="#fff"></use></mask><mask id="mask-db64c44c-087b-4d00-8cf7-b1a3007a97e3" x="80.249" y="624.431" width="839.502" height="123.696" maskUnits="userSpaceOnUse" stroke-width="0"><rect x="85.872" y="630.054" width="828.257" height="112.451" fill="#000"></rect><use xlink:href="#def-eda0d50b-0f27-498d-89e6-02ba7c5080e8" fill="#fff" stroke="#fff"></use></mask><mask id="mask-54ca168e-0875-47e7-b916-25ab4c8901e5" x="403.423" y="734.949" width="193.155" height="32.031" maskUnits="userSpaceOnUse" stroke-width="0"><rect x="404.879" y="736.405" width="190.243" height="29.119" fill="#000"></rect><use xlink:href="#def-18a77b39-f3d9-4240-8604-ab8da26be588" fill="#fff" stroke="#fff"></use></mask></defs><rect id="background-34e601f4-0269-45b3-9beb-1bde2a803cbc" x="-272.947" y="0" width="1545.894" height="1000" fill="#f8efed"></rect><g mask="url(#mask-dd46d509-f92c-4fa8-b925-c4c9101d8738)"><rect x="339.078" y="236.904" width="321.845" height="322.81" fill="url(#gradient-8ac9a2a1-ce3b-4da9-97a4-d27051a85c74)"></rect></g><g mask="url(#mask-db64c44c-087b-4d00-8cf7-b1a3007a97e3)"><rect x="85.872" y="630.054" width="828.257" height="112.451" fill="#56403f"></rect></g><g mask="url(#mask-54ca168e-0875-47e7-b916-25ab4c8901e5)"><rect x="404.879" y="736.405" width="190.243" height="29.119" fill="#56403f"></rect></g></svg>