<svg width="19" height="17" viewBox="0 0 19 17" fill="currentColor" xmlns="http://www.w3.org/2000/svg">
    <path d="M11.4574 16.8334C12.01 16.8334 12.5399 16.6139 12.9306 16.2232C13.3213 15.8325 13.5408 15.3026 13.5408 14.7501C13.5408 14.1975 13.3213 13.6676 12.9306 13.2769C12.5399 12.8862 12.01 12.6667 11.4574 12.6667C10.9049 12.6667 10.375 12.8862 9.9843 13.2769C9.59359 13.6676 9.3741 14.1975 9.3741 14.7501C9.3741 15.3026 9.59359 15.8325 9.9843 16.2232C10.375 16.6139 10.9049 16.8334 11.4574 16.8334ZM4.16577 16.8334C4.7183 16.8334 5.24821 16.6139 5.63891 16.2232C6.02961 15.8325 6.2491 15.3026 6.2491 14.7501C6.2491 14.1975 6.02961 13.6676 5.63891 13.2769C5.24821 12.8862 4.7183 12.6667 4.16577 12.6667C3.61323 12.6667 3.08333 12.8862 2.69263 13.2769C2.30193 13.6676 2.08243 14.1975 2.08243 14.7501C2.08243 15.3026 2.30193 15.8325 2.69263 16.2232C3.08333 16.6139 3.61323 16.8334 4.16577 16.8334ZM17.747 2.16987C18.0071 2.16149 18.2536 2.05229 18.4346 1.86538C18.6156 1.67846 18.7168 1.42849 18.7168 1.16831C18.7168 0.908135 18.6156 0.658159 18.4346 0.471245C18.2536 0.284332 18.0071 0.175135 17.747 0.166748H16.5481C15.6085 0.166748 14.796 0.818831 14.5918 1.7355L13.2866 7.61258C13.0824 8.52925 12.2699 9.18133 11.3304 9.18133H3.50535L2.00327 3.17091H11.7376C11.9952 3.15916 12.2384 3.04856 12.4165 2.86211C12.5946 2.67567 12.694 2.42773 12.694 2.16987C12.694 1.91201 12.5946 1.66408 12.4165 1.47763C12.2384 1.29119 11.9952 1.18059 11.7376 1.16883H2.00327C1.69875 1.16874 1.39823 1.23808 1.12453 1.37157C0.85084 1.50507 0.611185 1.69921 0.423786 1.93923C0.236387 2.17925 0.106178 2.45884 0.0430584 2.75674C-0.0200634 3.05464 -0.0144329 3.36302 0.0595188 3.65841L1.5616 9.66675C1.66989 10.1003 1.92003 10.4852 2.27224 10.7602C2.62444 11.0352 3.05849 11.1845 3.50535 11.1845H11.3304C12.242 11.1846 13.1265 10.8738 13.8376 10.3033C14.5488 9.73287 15.0441 8.93693 15.2418 8.04695L16.5481 2.16987H17.747Z"/>
</svg>