<svg xmlns="http://www.w3.org/2000/svg" width="132" height="58" viewBox="0 0 132 58" fill="none">
    <path fill-rule="evenodd" clip-rule="evenodd" d="M54.5957 0.000152588H60.2097H72.0734H75.3503V5.68424L71.3929 13.8095H65.3473H60.2097V21.0141H54.5957V13.8095V8.12543V5.68424V0.000152588ZM69.3048 5.68424H60.2097V8.12543H68.1159L69.3048 5.68424Z" fill="white"/>
    <path fill-rule="evenodd" clip-rule="evenodd" d="M75.3501 0.000152588H80.9642H92.8277H96.1047V5.68424L92.1472 13.8095H92.1244L95.6334 21.0141H89.5879L86.0789 13.8095H80.9642V21.0141H75.3501V13.8095V8.12543V5.68424V0.000152588ZM90.0592 5.68424H80.9642V8.12543H86.0789H88.8703L90.0592 5.68424Z" fill="white"/>
    <path fill-rule="evenodd" clip-rule="evenodd" d="M101.247 5.68424V15.3299H110.774V5.68424H101.247ZM110.774 0.000152588H116.388V5.68424V15.3299L110.774 21.0141H101.247H95.6334V15.3299V5.68424L101.247 0.000152588H110.774V0.000152588Z" fill="white"/>
    <path fill-rule="evenodd" clip-rule="evenodd" d="M60.2096 33.9028V36.3438H63.6458H69.7363V33.9028H60.2096ZM60.2096 42.0279V49.2325H54.5957V42.0279V36.3438V33.9028L60.2096 28.2186H69.7363H75.3502V33.9028V36.3438V37.3818V42.0279V43.5484V49.2325H69.7363V42.0279H63.6458H60.2096Z" fill="#D42E12"/>
    <path fill-rule="evenodd" clip-rule="evenodd" d="M84.8767 28.2186H90.4908V43.5485L84.8767 49.2326H75.3501H69.7362V43.5485V37.3818V28.2186H75.3501V37.3818V43.5485H84.8767V28.2186Z" fill="#D42E12"/>
    <path fill-rule="evenodd" clip-rule="evenodd" d="M98.0611 28.2186H103.675H105.631H111.245V33.9028H103.675V37.3818V43.5485V49.2326H98.0611V37.3818V33.9028H90.4908V28.2186H98.0611Z" fill="#D42E12"/>
    <path fill-rule="evenodd" clip-rule="evenodd" d="M116.859 33.9028V43.5485H126.386V33.9028H116.859ZM126.386 28.2186H132V33.9028V43.5485L126.386 49.2326H116.859H111.245V43.5485V33.9028L116.859 28.2186H126.386Z" fill="#D42E12"/>
    <path d="M48.9815 0H43.3675V49.2324H48.9815V0Z" fill="#D42E12"/>
    <path fill-rule="evenodd" clip-rule="evenodd" d="M43.3677 0.00012207H27.8909L13.481 12.1207L9.63578 8.85404H0.927811L4.90599 12.8818H8.88429L31.0961 19.5429L25.2387 15.343H43.3677V0.00012207Z" fill="white"/>
    <path fill-rule="evenodd" clip-rule="evenodd" d="M9.06141 17.3132L21.1727 25.8165L11.6251 24.7424L7.38263 17.2538L9.06141 17.3132Z" fill="white"/>
    <path fill-rule="evenodd" clip-rule="evenodd" d="M43.3677 32.3508H9.72444L27.4051 45.0608H4.59699L0 25.0111V49.2325H12.7301V48.1715H43.3677V32.3508Z" fill="white"/>
    <path fill-rule="evenodd" clip-rule="evenodd" d="M43.3677 26.1285L22.098 25.9047L35.64 27.4441H43.3677V26.1285Z" fill="white"/>
    <path d="M6.27467 53.9022V54.9267H2.1061C1.82349 54.9267 1.60989 55.0299 1.46554 55.2362C1.33821 55.4143 1.27382 55.6526 1.27382 55.9524C1.27382 56.2533 1.33821 56.4904 1.46554 56.666C1.60989 56.8725 1.82349 56.9755 2.1061 56.9755H6.27467V58H1.94596C1.31513 58 0.833496 57.8195 0.499855 57.4584C0.166213 57.0972 0 56.596 0 55.9524C0 55.3075 0.166213 54.8051 0.499855 54.4439C0.833496 54.0828 1.31513 53.9022 1.94596 53.9022H6.27467ZM9.19482 57.0346H13.4254V58H9.0359C8.40507 58 7.92344 57.8195 7.59101 57.4584C7.25737 57.0972 7.09116 56.596 7.09116 55.9524C7.09116 55.3075 7.25737 54.8051 7.59101 54.4439C7.92344 54.0828 8.40507 53.9022 9.0359 53.9022H13.4254V54.8677H9.19482C8.97284 54.8677 8.78719 54.9316 8.64041 55.0582C8.57492 55.1159 8.48635 55.2509 8.37834 55.4611L8.37105 55.4868H13.4254V56.4081H8.37105L8.37834 56.4302C8.47542 56.6414 8.56277 56.7779 8.64041 56.8405C8.78719 56.9694 8.97284 57.0346 9.19482 57.0346ZM20.6694 53.9022V54.9267H18.0646V58H16.849V54.9267H14.2443V53.9022H20.6694ZM26.5923 57.0346C26.8482 57.0346 26.9756 56.9314 26.9756 56.725C26.9756 56.5137 26.8482 56.4081 26.5923 56.4081H22.7027V57.0346H26.5923ZM22.7027 53.9022V55.4868H26.9113C27.3044 55.4868 27.6162 55.5961 27.8467 55.8147C28.0759 56.0335 28.1912 56.3417 28.1912 56.7397C28.1912 57.1377 28.0772 57.4485 27.8503 57.6684C27.6223 57.8894 27.3093 58 26.9113 58H21.4871V53.9022H22.7027ZM34.1555 54.8677V53.9022H39.0107C39.4911 53.9022 39.8721 54.03 40.1511 54.2867C40.327 54.4427 40.4472 54.627 40.5102 54.8382C40.5526 54.9954 40.5745 55.2178 40.5745 55.5028V58H35.1502C34.7547 58 34.4417 57.8894 34.2137 57.6684C33.9844 57.4485 33.8703 57.1377 33.8703 56.7397C33.8703 56.3417 33.9856 56.0335 34.2173 55.8147C34.4478 55.5961 34.7596 55.4868 35.1502 55.4868H39.3589V55.4475C39.3589 55.1429 39.2472 54.9586 39.0252 54.8959C38.9561 54.8776 38.8517 54.8677 38.7122 54.8677H34.1555ZM39.3589 57.0346V56.4081H35.4729C35.2146 56.4081 35.0859 56.5137 35.0859 56.725C35.0859 56.9314 35.2146 57.0346 35.4729 57.0346H39.3589ZM41.391 53.9022H46.8153C47.2132 53.9022 47.5262 54.0128 47.7542 54.2351C47.9811 54.4575 48.0951 54.767 48.0951 55.1649C48.0951 55.4892 48.0199 55.7533 47.8707 55.9598C48.0199 56.1612 48.0951 56.4216 48.0951 56.7409C48.0951 57.1389 47.9811 57.4485 47.7542 57.6696C47.5262 57.8894 47.2132 58 46.8153 58H41.391V53.9022ZM46.4962 57.0346C46.7521 57.0346 46.8795 56.9314 46.8795 56.725C46.8795 56.5285 46.7679 56.4228 46.5459 56.4081H42.6066V57.0346H46.4962ZM42.6066 54.8677V55.4868H46.4962C46.7521 55.4917 46.8795 55.3886 46.8795 55.1773C46.8795 54.9709 46.7521 54.8677 46.4962 54.8677H42.6066ZM55.3379 53.9022V54.9267H52.7332V58H51.5176V54.9267H48.9128V53.9022H55.3379ZM57.6625 53.9022H61.5641C61.9815 53.9022 62.3369 54.0509 62.6305 54.3481C62.9241 54.6454 63.0709 55.0053 63.0709 55.4278V56.4744C63.0709 56.892 62.9241 57.2507 62.6305 57.5504C62.3369 57.8502 61.9815 58 61.5641 58H57.6625C57.25 58 56.8957 57.8502 56.5997 57.5504C56.3036 57.2507 56.1556 56.892 56.1556 56.4744V55.4278C56.1556 55.0053 56.3036 54.6454 56.5997 54.3481C56.8957 54.0509 57.25 53.9022 57.6625 53.9022ZM57.4077 55.4868V56.3565C57.4077 56.5285 57.4683 56.6771 57.5884 56.7988C57.7098 56.9215 57.8553 56.9829 58.0264 56.9829H61.1419C61.313 56.9829 61.4585 56.9215 61.5799 56.7988C61.7 56.6771 61.7606 56.5285 61.7606 56.3565V55.4868C61.7606 55.3148 61.7 55.1662 61.5799 55.0446C61.4585 54.9217 61.313 54.8604 61.1419 54.8604H58.0264C57.8553 54.8604 57.7098 54.9217 57.5884 55.0446C57.4683 55.1662 57.4077 55.3148 57.4077 55.4868ZM71.0817 53.9022H72.3191V58H71.1035V55.1539C71.089 55.1637 71.0464 55.1957 70.9736 55.2497C70.9021 55.3038 70.8135 55.3701 70.7105 55.4475C70.6073 55.5261 70.4957 55.6109 70.3732 55.703C70.2518 55.7952 70.1342 55.8849 70.0213 55.9696C69.9084 56.0543 69.8078 56.1318 69.718 56.1993C69.6283 56.2681 69.5628 56.3184 69.5227 56.3491C69.4608 56.3994 69.3953 56.4474 69.325 56.4953C69.2545 56.542 69.1842 56.585 69.1138 56.6243C69.0423 56.6636 68.9719 56.6992 68.9028 56.7299C68.8324 56.7619 68.7656 56.7865 68.7013 56.806C68.6371 56.8282 68.5704 56.8442 68.5012 56.8565C68.4307 56.8688 68.3665 56.8774 68.3071 56.8811C68.2379 56.8883 68.1712 56.8932 68.1044 56.8957C68.0377 56.8932 67.971 56.8883 67.9019 56.8811C67.8424 56.8774 67.778 56.8688 67.7077 56.8565C67.6386 56.8442 67.5719 56.8282 67.5076 56.806C67.3789 56.7655 67.2419 56.7042 67.0939 56.6231C66.9459 56.5408 66.8087 56.4499 66.6826 56.3491C66.6425 56.3184 66.5782 56.2681 66.4872 56.1981C66.3974 56.1281 66.2956 56.0507 66.1815 55.9635C66.0686 55.8775 65.9498 55.789 65.8272 55.6981C65.7035 55.606 65.5907 55.5224 65.4875 55.4438C65.3845 55.3665 65.2971 55.3001 65.2268 55.246C65.1552 55.192 65.1151 55.1613 65.1054 55.1539V58H63.8898V53.9022H65.1273L67.3777 55.5826C67.4481 55.6355 67.5234 55.6833 67.601 55.7263C67.6702 55.7632 67.7478 55.7964 67.8339 55.8258C67.9213 55.8553 68.0111 55.8713 68.1068 55.8713C68.1991 55.8713 68.2876 55.8553 68.375 55.8258C68.4611 55.7964 68.5388 55.7632 68.6079 55.7263C68.6855 55.6833 68.762 55.6355 68.8349 55.5826L71.0817 53.9022ZM73.4232 54.8677V53.9022H78.2784C78.7588 53.9022 79.1398 54.03 79.4188 54.2867C79.5947 54.4427 79.7149 54.627 79.778 54.8382C79.8204 54.9954 79.8422 55.2178 79.8422 55.5028V58H74.418C74.0225 58 73.7095 57.8894 73.4814 57.6684C73.2522 57.4485 73.1381 57.1377 73.1381 56.7397C73.1381 56.3417 73.2534 56.0335 73.4851 55.8147C73.7156 55.5961 74.0273 55.4868 74.418 55.4868H78.6266V55.4475C78.6266 55.1429 78.515 54.9586 78.293 54.8959C78.2238 54.8776 78.1195 54.8677 77.98 54.8677H73.4232ZM78.6266 57.0346V56.4081H74.7407C74.4823 56.4081 74.3537 56.5137 74.3537 56.725C74.3537 56.9314 74.4823 57.0346 74.7407 57.0346H78.6266ZM81.8743 58H80.6587V53.9022H87.0779V54.8677H81.8743V58ZM88.1807 54.8677V53.9022H93.0359C93.5163 53.9022 93.8973 54.03 94.1763 54.2867C94.3522 54.4427 94.4724 54.627 94.5355 54.8382C94.5779 54.9954 94.5997 55.2178 94.5997 55.5028V58H89.1754C88.78 58 88.467 57.8894 88.2389 57.6684C88.0096 57.4485 87.8956 57.1377 87.8956 56.7397C87.8956 56.3417 88.0109 56.0335 88.2426 55.8147C88.473 55.5961 88.7848 55.4868 89.1754 55.4868H93.3841V55.4475C93.3841 55.1429 93.2725 54.9586 93.0505 54.8959C92.9813 54.8776 92.877 54.8677 92.7375 54.8677H88.1807ZM93.3841 57.0346V56.4081H89.4981C89.2398 56.4081 89.1112 56.5137 89.1112 56.725C89.1112 56.9314 89.2398 57.0346 89.4981 57.0346H93.3841ZM95.4174 57.0346H100.521C100.777 57.0346 100.905 56.9314 100.905 56.725C100.905 56.5285 100.793 56.4228 100.571 56.4081H96.3977V55.4868H100.521C100.777 55.4917 100.905 55.3886 100.905 55.1773C100.905 54.9709 100.777 54.8677 100.521 54.8677H95.4174V53.9022H100.841C101.238 53.9022 101.551 54.0128 101.779 54.2351C102.006 54.4575 102.12 54.767 102.12 55.1649C102.12 55.4892 102.045 55.7533 101.896 55.9598C102.045 56.1612 102.12 56.4216 102.12 56.7409C102.12 57.1389 102.006 57.4485 101.779 57.6696C101.551 57.8894 101.238 58 100.841 58H95.4174V57.0346ZM104.381 58C103.884 58 103.52 57.8699 103.288 57.6095C103.053 57.349 102.937 57.0628 102.937 56.7483V53.9022H104.152V56.5408C104.152 56.8306 104.293 56.9755 104.576 56.9755H108.258V53.9022H109.474V58H104.381ZM116.741 53.9022V58H115.525V56.4081H111.507V58H110.291V53.9022H111.507V55.4868H115.525V53.9022H116.741ZM119.066 53.9022H122.968C123.385 53.9022 123.741 54.0509 124.035 54.3481C124.328 54.6454 124.475 55.0053 124.475 55.4278V56.4744C124.475 56.892 124.328 57.2507 124.035 57.5504C123.741 57.8502 123.385 58 122.968 58H119.066C118.654 58 118.3 57.8502 118.004 57.5504C117.708 57.2507 117.56 56.892 117.56 56.4744V55.4278C117.56 55.0053 117.708 54.6454 118.004 54.3481C118.3 54.0509 118.654 53.9022 119.066 53.9022ZM118.812 55.4868V56.3565C118.812 56.5285 118.872 56.6771 118.992 56.7988C119.114 56.9215 119.259 56.9829 119.43 56.9829H122.546C122.717 56.9829 122.863 56.9215 122.984 56.7988C123.104 56.6771 123.165 56.5285 123.165 56.3565V55.4868C123.165 55.3148 123.104 55.1662 122.984 55.0446C122.863 54.9217 122.717 54.8604 122.546 54.8604H119.43C119.259 54.8604 119.114 54.9217 118.992 55.0446C118.872 55.1662 118.812 55.3148 118.812 55.4868ZM125.294 53.9022H130.718C131.116 53.9022 131.429 54.0128 131.657 54.2351C131.884 54.4575 131.998 54.767 131.998 55.1649C131.998 55.4892 131.923 55.7533 131.774 55.9598C131.923 56.1612 131.998 56.4216 131.998 56.7409C131.998 57.1389 131.884 57.4485 131.657 57.6696C131.429 57.8894 131.116 58 130.718 58H125.294V53.9022ZM130.399 57.0346C130.655 57.0346 130.782 56.9314 130.782 56.725C130.782 56.5285 130.671 56.4228 130.449 56.4081H126.509V57.0346H130.399ZM126.509 54.8677V55.4868H130.399C130.655 55.4917 130.782 55.3886 130.782 55.1773C130.782 54.9709 130.655 54.8677 130.399 54.8677H126.509Z" fill="white"/>
</svg>