<svg xmlns="http://www.w3.org/2000/svg" fill="currentColor" viewBox="0 0 16 16" preserveAspectRatio="xMidYMid meet"><path d="M8 1.167a.6.6 0 0 1 .6.6v1.804c0 .317-.283.558-.6.558s-.6-.24-.6-.558V1.767a.6.6 0 0 1 .6-.6ZM5.405 5.309c.227-.22.264-.587.046-.815L4.5 3.5a.6.6 0 0 0-.849.849l.933.974c.22.23.592.207.821-.014ZM4.054 8c0-.317-.24-.6-.557-.6H1.82a.6.6 0 1 0 0 1.2h1.677c.317 0 .557-.283.557-.6ZM5.21 10.692c-.22-.226-.586-.264-.814-.046L3.5 11.5a.6.6 0 1 0 .848.848l.876-.834c.23-.22.207-.592-.014-.822ZM8 11.884c-.317 0-.6.24-.6.558v1.67a.6.6 0 1 0 1.2 0v-1.67c0-.317-.283-.558-.6-.558ZM10.67 10.723c-.223.215-.264.574-.056.804l.886.973a.6.6 0 0 0 .848-.848l-.846-.932c-.218-.239-.598-.22-.831.003ZM12.008 8c0 .317.24.6.557.6h1.717a.6.6 0 0 0 0-1.2h-1.717c-.317 0-.557.283-.557.6ZM10.616 5.384c.224.224.594.254.818.03L12.5 4.35a.6.6 0 0 0-.849-.849l-1.065 1.066c-.224.224-.194.594.03.818Z"></path><path fill-rule="evenodd" d="M8.05 6.256a1.744 1.744 0 1 0 0 3.488 1.744 1.744 0 0 0 0-3.488ZM5.107 8a2.944 2.944 0 1 1 5.89 0 2.944 2.944 0 0 1-5.89 0Z" clip-rule="evenodd"></path></svg>