<?xml version="1.0" standalone="no"?>
<!DOCTYPE svg PUBLIC "-//W3C//DTD SVG 20010904//EN"
 "http://www.w3.org/TR/2001/REC-SVG-20010904/DTD/svg10.dtd">
<svg version="1.0" xmlns="http://www.w3.org/2000/svg"
 width="1300.000000pt" height="1300.000000pt" viewBox="0 0 1300.000000 1300.000000"
 preserveAspectRatio="xMidYMid meet">

<g transform="translate(0.000000,1300.000000) scale(0.100000,-0.100000)"
fill="#000000" stroke="none">
<path d="M3616 11442 c-241 -479 -407 -1106 -453 -1703 -13 -164 -9 -798 5
-939 41 -404 120 -813 224 -1156 l30 -101 -149 -249 c-264 -438 -524 -925
-703 -1313 l-67 -144 50 -136 c28 -75 54 -142 60 -148 6 -8 33 -13 66 -13 32
0 64 -6 73 -12 9 -8 77 -254 179 -647 l164 -633 102 -128 c55 -70 105 -130
110 -133 6 -4 39 2 73 12 l64 18 150 -181 c931 -1124 1712 -1813 2505 -2211
347 -173 392 -183 556 -115 859 358 1739 1102 2751 2326 l150 181 63 -18 c35
-10 68 -16 74 -12 5 3 55 63 110 133 l102 128 164 633 c90 349 169 640 174
647 5 7 33 12 66 12 31 0 62 4 70 9 8 5 38 71 66 148 l52 138 -21 50 c-44 106
-371 750 -482 950 -64 116 -184 322 -267 459 l-149 250 30 100 c93 310 159
626 202 974 31 252 35 349 34 742 0 311 -4 392 -23 548 -57 478 -170 917 -336
1311 -59 141 -142 311 -150 311 -10 0 -169 -82 -304 -157 -769 -426 -1446
-965 -1828 -1457 -20 -25 -61 -40 -363 -132 l-340 -104 -340 104 c-302 92
-343 107 -363 132 -411 529 -1159 1109 -1988 1543 -75 39 -139 71 -142 71 -4
0 -27 -40 -51 -88z m316 -228 c705 -400 1304 -885 1704 -1381 l82 -100 -59
-134 c-148 -333 -195 -412 -465 -785 -86 -119 -153 -218 -150 -222 9 -8 361
350 437 446 69 86 164 246 292 492 42 80 82 153 89 162 12 16 36 12 326 -52
l312 -70 313 70 c289 64 313 68 325 52 7 -9 47 -82 89 -162 128 -246 223 -406
292 -492 76 -96 428 -454 437 -446 3 4 -64 103 -150 222 -270 373 -317 452
-465 785 l-59 134 82 100 c344 427 847 855 1431 1219 119 75 411 243 440 254
9 4 -1 -20 -23 -57 -213 -352 -392 -779 -458 -1094 -22 -107 -27 -157 -28
-285 -1 -85 3 -168 7 -185 8 -27 3 -25 -55 33 -35 34 -67 62 -72 62 -5 0 -6
-63 -2 -142 19 -385 96 -688 253 -998 46 -91 127 -265 179 -388 78 -183 113
-251 198 -385 382 -600 610 -1061 771 -1557 41 -125 125 -435 125 -459 0 -4
-46 -17 -103 -29 -476 -100 -1000 -319 -1430 -599 -239 -155 -401 -286 -615
-497 -254 -250 -417 -461 -632 -819 l-17 -28 -27 66 -28 65 213 693 c117 380
216 696 220 701 4 4 103 -44 220 -108 117 -64 214 -116 216 -116 11 0 -3 25
-41 72 -53 63 -145 140 -259 214 l-82 54 75 0 c183 0 391 76 509 185 105 98
176 233 207 393 16 85 19 322 4 322 -5 0 -10 -10 -10 -23 0 -27 -31 -134 -59
-205 -103 -258 -335 -404 -616 -388 -212 12 -353 84 -419 213 -24 48 -48 123
-40 123 3 0 22 -9 44 -20 124 -63 352 -66 479 -7 61 28 150 119 182 185 l26
54 256 121 c141 67 258 127 259 132 4 13 -189 80 -327 113 -97 23 -131 26
-290 27 -159 0 -189 -3 -259 -23 -208 -60 -391 -203 -509 -395 l-37 -62 5 55
c10 97 35 410 35 428 -1 38 -20 -23 -105 -338 -48 -179 -90 -327 -92 -330 -14
-16 -390 202 -487 283 l-29 24 -18 219 c-10 120 -18 228 -19 239 0 17 -2 17
-10 5 -5 -8 -10 -25 -10 -37 0 -13 -4 -23 -10 -23 -5 0 -10 10 -10 23 0 12 -5
29 -10 37 -8 12 -10 12 -10 -5 -1 -11 -9 -119 -19 -239 l-18 -219 -29 -24
c-97 -81 -473 -299 -487 -283 -2 3 -44 151 -92 330 -85 315 -104 376 -105 338
0 -18 25 -331 35 -428 l5 -55 -37 62 c-118 192 -301 335 -509 395 -70 20 -100
23 -259 23 -159 -1 -193 -4 -290 -27 -138 -33 -331 -100 -327 -113 1 -5 118
-65 259 -132 l256 -121 26 -54 c32 -66 121 -157 182 -185 127 -59 355 -56 479
7 22 11 41 20 44 20 8 0 -16 -75 -40 -123 -66 -129 -207 -201 -419 -213 -290
-17 -513 129 -625 410 -16 40 -35 102 -42 139 -7 37 -16 67 -20 67 -14 0 -9
-245 6 -322 31 -160 102 -295 207 -393 118 -109 326 -185 508 -185 l75 0 -81
-53 c-113 -74 -207 -152 -259 -215 -38 -47 -52 -72 -41 -72 2 0 99 52 216 116
117 64 216 112 220 108 4 -5 103 -321 220 -701 l213 -693 -28 -65 -27 -66 -17
28 c-215 358 -378 569 -632 819 -214 211 -376 342 -615 497 -430 280 -954 499
-1430 599 -57 12 -103 25 -103 29 0 24 84 334 125 459 161 496 389 957 771
1557 85 134 120 202 198 385 52 123 133 297 179 388 157 310 234 613 253 998
4 79 3 142 -2 142 -5 0 -37 -28 -72 -62 -58 -58 -63 -60 -55 -33 17 64 8 324
-16 444 -57 292 -196 646 -386 986 -43 77 -87 153 -98 169 -28 39 -23 37 165
-70z m-191 -229 c292 -508 401 -1095 299 -1605 -11 -52 -29 -122 -40 -154 -11
-33 -17 -62 -14 -65 3 -3 20 10 37 29 17 19 66 73 110 120 l80 85 -6 -100
c-13 -190 -71 -483 -145 -728 -23 -74 -44 -117 -87 -180 -31 -45 -132 -194
-223 -330 -105 -157 -168 -243 -173 -235 -18 34 -92 275 -124 401 -99 405
-141 834 -132 1342 7 386 33 593 113 925 39 161 123 418 179 553 43 102 30
108 126 -58z m5688 -58 c127 -338 208 -709 241 -1092 13 -155 13 -580 0 -760
-32 -449 -97 -803 -204 -1124 -25 -73 -47 -135 -49 -137 -2 -2 -78 107 -169
243 -91 137 -192 285 -223 330 -43 63 -64 106 -87 180 -74 245 -132 538 -145
728 l-6 100 80 -85 c44 -47 93 -101 110 -120 17 -19 34 -32 37 -29 3 3 -3 32
-14 65 -33 94 -59 239 -72 397 -37 450 93 960 358 1410 l58 97 17 -32 c9 -18
40 -95 68 -171z m-4451 -4451 c23 -114 94 -211 190 -258 66 -32 230 -33 311 0
30 12 57 20 59 17 10 -9 -12 -25 -66 -46 -72 -29 -209 -32 -292 -7 -106 33
-184 116 -235 251 -31 84 -31 97 -1 97 20 0 25 -7 34 -54z m3102 39 c0 -30
-52 -152 -87 -203 -71 -104 -164 -147 -318 -146 -89 1 -194 28 -211 55 -12 19
2 18 57 -3 81 -33 245 -32 311 0 96 47 167 144 190 258 9 47 14 54 34 54 15 0
24 -6 24 -15z m-2686 -94 c16 -17 17 -23 6 -36 -8 -9 -25 -15 -39 -13 -32 4
-51 48 -32 72 15 18 35 10 65 -23z m2286 -5 c0 -43 -53 -63 -81 -30 -11 14 -9
20 20 46 26 23 35 27 47 17 8 -6 14 -21 14 -33z m-1062 -227 c181 -155 385
-288 552 -358 41 -18 76 -34 78 -36 4 -4 -396 -1242 -404 -1254 -2 -2 -22 12
-46 31 -59 48 -150 107 -230 151 l-68 37 -67 -37 c-81 -44 -172 -103 -231
-151 -24 -19 -44 -33 -46 -31 -8 12 -408 1250 -404 1254 2 2 37 18 78 36 168
71 374 205 550 358 63 55 116 100 118 100 2 1 56 -44 120 -100z m-796 -1009
c99 -278 196 -551 215 -606 l37 -102 -74 -80 c-66 -74 -149 -178 -191 -242 -9
-14 -19 -23 -21 -20 -5 6 -344 1286 -354 1338 -7 32 -2 38 97 138 59 59 106
99 108 92 2 -7 85 -240 183 -518z m1744 292 c-8 -53 -351 -1342 -356 -1342 -3
0 -29 33 -57 73 -27 39 -86 112 -129 161 -43 48 -83 94 -88 101 -6 8 15 79 61
206 39 107 137 384 219 616 l149 422 103 -102 c97 -95 103 -104 98 -135z
m-4379 7 c536 -102 1064 -329 1463 -630 315 -238 610 -564 882 -979 77 -117
88 -138 82 -165 -3 -16 -9 -33 -13 -37 -3 -3 -35 20 -71 53 -282 258 -640 443
-1050 542 -294 72 -505 95 -837 93 l-241 -1 -86 300 c-179 622 -242 845 -240
845 2 0 52 -9 111 -21z m6661 -251 c-42 -150 -116 -408 -164 -573 l-86 -300
-276 -1 c-288 0 -428 -12 -647 -55 -485 -95 -890 -290 -1205 -578 -36 -33 -68
-56 -71 -53 -4 4 -10 21 -13 37 -6 27 5 48 82 165 284 431 572 749 902 995
322 239 782 454 1200 560 95 24 319 72 346 74 6 1 -25 -122 -68 -271z m-3250
-645 c163 -103 306 -240 409 -393 155 -229 249 -595 198 -767 -27 -90 -115
-147 -271 -174 -83 -14 -250 -7 -356 16 -73 15 -83 15 -155 0 -43 -9 -130 -19
-193 -22 -139 -6 -235 11 -329 59 -54 28 -69 41 -90 81 -33 65 -39 165 -16
298 62 375 277 694 607 902 50 31 94 57 98 57 4 0 48 -26 98 -57z m-2138 -508
c386 -55 710 -196 988 -429 126 -107 129 -111 140 -208 23 -182 94 -261 279
-309 42 -10 93 -19 113 -19 33 0 46 -9 121 -83 94 -94 172 -138 287 -162 85
-18 139 -18 224 0 127 26 256 107 333 206 26 34 34 39 71 39 22 0 75 9 117 19
186 48 257 128 278 311 11 97 10 95 141 206 341 286 740 430 1253 451 132 5
432 -10 444 -23 12 -11 -155 -233 -353 -469 -342 -408 -868 -940 -1256 -1271
-413 -351 -791 -590 -1069 -674 l-71 -22 -69 21 c-271 82 -623 301 -1025 637
-383 319 -908 845 -1277 1279 -187 219 -390 488 -378 499 3 3 52 9 109 15 143
13 460 6 600 -14z m2151 -929 c57 -13 133 -27 167 -31 61 -7 63 -8 46 -26 -66
-73 -209 -131 -324 -131 -115 0 -258 58 -323 130 -17 18 -14 19 65 31 46 6
117 20 158 30 98 25 89 25 211 -3z"/>
<path d="M6470 4123 c-206 -21 -325 -52 -403 -104 -76 -50 -108 -134 -108
-284 0 -92 18 -161 59 -226 48 -75 99 -101 289 -148 93 -22 179 -41 193 -41
14 0 100 19 193 41 190 47 241 73 289 148 41 65 59 134 59 226 0 204 -54 284
-231 339 -86 27 -279 55 -340 49z"/>
</g>
</svg>
